<?xml version="1.0" encoding="iso-8859-1"?>
<!-- Generator: Adobe Illustrator 19.0.0, SVG Export Plug-In . SVG Version: 6.00 Build 0)  -->
<svg version="1.1" id="Layer_1" xmlns="http://www.w3.org/2000/svg" xmlns:xlink="http://www.w3.org/1999/xlink" x="0px" y="0px"
	 viewBox="0 0 512 512" style="enable-background:new 0 0 512 512;" xml:space="preserve">
<g>
	<g>
		<g>
			<path d="M122.897,216.99c4.557,7.893,13.056,12.8,22.187,12.8c4.48,0,8.9-1.186,12.783-3.43l73.907-42.667
				c1.954-1.126,3.388-2.995,3.977-5.18c0.58-2.185,0.273-4.514-0.853-6.477l-4.267-7.39l96.068-55.467
				c4.079-2.355,5.478-7.569,3.123-11.656c-2.355-4.079-7.578-5.478-11.657-3.123l-96.068,55.467l-8.533-14.78l96.068-55.467
				c4.079-2.355,5.478-7.578,3.123-11.657c-2.364-4.087-7.595-5.487-11.657-3.123l-96.077,55.467l-8.525-14.78l96.068-55.467
				c4.079-2.355,5.478-7.578,3.123-11.657c-2.364-4.087-7.586-5.487-11.656-3.123l-96.068,55.467l-4.267-7.39
				c-2.364-4.079-7.586-5.495-11.657-3.123l-73.907,42.667c-12.22,7.057-16.418,22.741-9.37,34.97L122.897,216.99z M106.675,137.682
				l66.5-38.4l38.4,66.509c0,0.009,0.008,0.009,0.008,0.009l4.258,7.381l-66.509,38.4c-3.994,2.295-9.395,0.811-11.656-3.123
				l-4.267-7.39l51.738-29.867c4.079-2.355,5.478-7.578,3.123-11.656c-2.355-4.079-7.569-5.487-11.656-3.123l-51.738,29.867
				l-8.533-14.78l51.738-29.867c4.079-2.355,5.478-7.578,3.123-11.657c-2.364-4.087-7.569-5.487-11.657-3.123l-51.738,29.867
				l-4.267-7.39C101.197,145.268,102.596,140.037,106.675,137.682z"/>
			<path d="M128,477.871H8.533c-4.71,0-8.533,3.823-8.533,8.533c0,4.71,3.823,8.533,8.533,8.533H128c4.71,0,8.533-3.823,8.533-8.533
				C136.533,481.694,132.71,477.871,128,477.871z"/>
			<path d="M8.533,409.605c4.71,0,8.533-3.823,8.533-8.533v-93.867h281.6c4.71,0,8.533-3.823,8.533-8.533
				c0-4.71-3.823-8.533-8.533-8.533h-78.669l-15.454-61.807c-1.143-4.565-5.786-7.356-10.351-6.204
				c-4.565,1.143-7.347,5.777-6.204,10.351l14.413,57.66H153.6v-25.6c0-4.71-3.823-8.533-8.533-8.533
				c-4.71,0-8.533,3.823-8.533,8.533v25.6H87.441l14.754-66.415c1.024-4.599-1.877-9.156-6.477-10.18
				c-4.599-1.033-9.165,1.877-10.18,6.477l-15.582,70.118H8.533c-4.71,0-8.533,3.823-8.533,8.533v102.4
				C0,405.782,3.823,409.605,8.533,409.605z"/>
			<path d="M320.154,72.231c1.451,0,2.91-0.367,4.258-1.143l14.788-8.533c4.079-2.355,5.478-7.578,3.123-11.657
				c-2.364-4.087-7.578-5.487-11.657-3.123l-14.788,8.533c-4.079,2.355-5.478,7.569-3.123,11.656
				C314.334,70.703,317.201,72.231,320.154,72.231z"/>
			<path d="M337.22,101.79c1.442,0,2.91-0.367,4.258-1.143l14.788-8.533c4.079-2.355,5.478-7.569,3.123-11.657
				c-2.364-4.079-7.569-5.487-11.657-3.123l-14.788,8.533c-4.079,2.355-5.478,7.578-3.123,11.657
				C331.401,100.263,334.268,101.79,337.22,101.79z"/>
			<path d="M303.087,42.671c1.442,0,2.91-0.367,4.258-1.143l14.788-8.533c4.079-2.355,5.478-7.578,3.123-11.656
				c-2.364-4.087-7.578-5.495-11.656-3.123l-14.788,8.533c-4.079,2.355-5.478,7.569-3.123,11.657
				C297.267,41.144,300.134,42.671,303.087,42.671z"/>
			<path d="M418.133,375.472c-14.114,0-25.6,11.486-25.6,25.6s11.486,25.6,25.6,25.6s25.6-11.486,25.6-25.6
				S432.247,375.472,418.133,375.472z M418.133,409.605c-4.702,0-8.533-3.831-8.533-8.533c0-4.702,3.831-8.533,8.533-8.533
				s8.533,3.831,8.533,8.533C426.667,405.773,422.835,409.605,418.133,409.605z"/>
			<path d="M503.467,477.871H366.933c-4.71,0-8.533,3.823-8.533,8.533c0,4.71,3.823,8.533,8.533,8.533h136.533
				c4.71,0,8.533-3.823,8.533-8.533C512,481.694,508.177,477.871,503.467,477.871z"/>
			<path d="M230.4,375.472c-14.114,0-25.6,11.486-25.6,25.6s11.486,25.6,25.6,25.6s25.6-11.486,25.6-25.6
				S244.514,375.472,230.4,375.472z M230.4,409.605c-4.702,0-8.533-3.831-8.533-8.533c0-4.702,3.831-8.533,8.533-8.533
				c4.702,0,8.533,3.831,8.533,8.533C238.933,405.773,235.102,409.605,230.4,409.605z"/>
			<path d="M500.966,284.105l-24.294-24.294l-24.943-66.534c-0.111-0.282-0.23-0.555-0.358-0.819
				c-12.169-24.329-30.967-38.852-50.304-38.852H332.8c-4.71,0-8.533,3.823-8.533,8.533v230.4h-34.816
				c-4.156-28.902-29.013-51.2-59.051-51.2c-32.939,0-59.733,26.795-59.733,59.733s26.795,59.733,59.733,59.733
				c30.037,0,54.895-22.298,59.051-51.2H332.8c4.71,0,8.533-3.823,8.533-8.533v-128h124.467l23.1,23.1
				c4.864,4.864,6.016,16.051,6.033,19.567v8.533H486.4c-4.71,0-8.533,3.823-8.533,8.533s3.823,8.533,8.533,8.533h8.533v51.2
				h-17.749c-4.156-28.902-29.013-51.2-59.051-51.2c-32.939,0-59.733,26.795-59.733,59.733s26.795,59.733,59.733,59.733
				c30.037,0,54.895-22.298,59.051-51.2h26.283c4.71,0,8.533-3.823,8.533-8.533v-85.333C512,313.63,511.693,294.823,500.966,284.105
				z M230.4,443.738c-23.526,0-42.667-19.14-42.667-42.667c0-23.526,19.14-42.667,42.667-42.667
				c23.526,0,42.667,19.14,42.667,42.667C273.067,424.598,253.926,443.738,230.4,443.738z M423.407,256.005l10.897-21.786
				c2.108-4.215,0.393-9.344-3.823-11.452c-4.224-2.116-9.335-0.393-11.452,3.823l-14.703,29.414h-62.993v-85.333h59.733
				c14.848,0,27.691,14.916,34.842,29.022l21.112,56.311H423.407z M418.133,443.738c-23.526,0-42.667-19.14-42.667-42.667
				c0-23.526,19.14-42.667,42.667-42.667c23.526,0,42.667,19.14,42.667,42.667C460.8,424.598,441.66,443.738,418.133,443.738z"/>
			<path d="M332.8,477.871h-17.067c-4.71,0-8.533,3.823-8.533,8.533c0,4.71,3.823,8.533,8.533,8.533H332.8
				c4.71,0,8.533-3.823,8.533-8.533C341.333,481.694,337.51,477.871,332.8,477.871z"/>
			<path d="M93.867,341.338c-32.939,0-59.733,26.795-59.733,59.733s26.795,59.733,59.733,59.733
				c32.939,0,59.733-26.795,59.733-59.733S126.805,341.338,93.867,341.338z M93.867,443.738c-23.526,0-42.667-19.14-42.667-42.667
				c0-23.526,19.14-42.667,42.667-42.667c23.526,0,42.667,19.14,42.667,42.667C136.533,424.598,117.393,443.738,93.867,443.738z"/>
			<path d="M264.533,477.871H179.2c-4.71,0-8.533,3.823-8.533,8.533c0,4.71,3.823,8.533,8.533,8.533h85.333
				c4.71,0,8.533-3.823,8.533-8.533C273.067,481.694,269.244,477.871,264.533,477.871z"/>
			<path d="M93.867,375.472c-14.114,0-25.6,11.486-25.6,25.6s11.486,25.6,25.6,25.6s25.6-11.486,25.6-25.6
				S107.981,375.472,93.867,375.472z M93.867,409.605c-4.702,0-8.533-3.831-8.533-8.533c0-4.702,3.831-8.533,8.533-8.533
				c4.702,0,8.533,3.831,8.533,8.533C102.4,405.773,98.569,409.605,93.867,409.605z"/>
		</g>
	</g>
</g>
<g>
</g>
<g>
</g>
<g>
</g>
<g>
</g>
<g>
</g>
<g>
</g>
<g>
</g>
<g>
</g>
<g>
</g>
<g>
</g>
<g>
</g>
<g>
</g>
<g>
</g>
<g>
</g>
<g>
</g>
</svg>
