<?xml version="1.0" encoding="iso-8859-1"?>
<!-- Generator: Adobe Illustrator 19.0.0, SVG Export Plug-In . SVG Version: 6.00 Build 0)  -->
<svg version="1.1" id="Capa_1" xmlns="http://www.w3.org/2000/svg" xmlns:xlink="http://www.w3.org/1999/xlink" x="0px" y="0px"
	 viewBox="0 0 512 512" style="enable-background:new 0 0 512 512;" xml:space="preserve">
<g>
	<polygon style="fill:#00448F;" points="221.867,128.341 187.733,162.475 174.933,175.275 145.067,145.408 192,98.475 	"/>
	
		<rect x="120.377" y="85.866" transform="matrix(-0.7071 0.7071 -0.7071 -0.7071 337.7978 74.0513)" style="fill:#00448F;" width="66.372" height="42.24"/>
	
		<rect x="90.549" y="56.024" transform="matrix(-0.7071 0.7071 -0.7071 -0.7071 265.7766 44.1984)" style="fill:#00448F;" width="66.372" height="42.24"/>
	<polygon style="fill:#00448F;" points="174.933,175.275 162.133,188.075 128,222.208 98.133,192.341 102.4,188.075 
		145.067,145.408 	"/>
	
		<rect x="60.676" y="26.157" transform="matrix(-0.7071 0.7071 -0.7071 -0.7071 193.6618 14.336)" style="fill:#00448F;" width="66.372" height="42.24"/>
	<polygon style="fill:#00448F;" points="115.2,115.541 68.267,162.475 38.4,132.608 42.667,128.341 85.333,85.675 	"/>
	<polygon style="fill:#00448F;" points="85.333,85.675 42.667,128.341 38.4,132.608 8.533,102.741 55.467,55.808 	"/>
	<polygon style="fill:#00448F;" points="145.067,145.408 102.4,188.075 98.133,192.341 68.267,162.475 115.2,115.541 	"/>
	<polygon style="fill:#00448F;" points="396.117,396.459 349.184,443.392 319.317,413.525 323.584,409.259 366.251,366.592 	"/>
	
		<rect x="401.319" y="366.805" transform="matrix(-0.7071 0.7071 -0.7071 -0.7071 1016.0513 354.9875)" style="fill:#00448F;" width="66.372" height="42.24"/>
	
		<rect x="371.461" y="336.941" transform="matrix(-0.7071 0.7071 -0.7071 -0.7071 943.9632 325.119)" style="fill:#00448F;" width="66.372" height="42.24"/>
	<polygon style="fill:#00448F;" points="366.251,366.592 323.584,409.259 319.317,413.525 289.451,383.659 323.584,349.525 
		324.267,350.208 337.067,337.408 	"/>
	<polygon style="fill:#00448F;" points="413.184,319.659 366.251,366.592 337.067,337.408 349.867,324.608 349.184,323.925 
		383.317,289.792 	"/>
	<polygon style="fill:#00448F;" points="425.984,426.325 383.317,468.992 379.051,473.259 349.184,443.392 396.117,396.459 	"/>
	
		<rect x="431.153" y="396.65" transform="matrix(-0.7071 0.7071 -0.7071 -0.7071 1088.0846 384.8404)" style="fill:#00448F;" width="66.372" height="42.24"/>
	<polygon style="fill:#00448F;" points="455.851,456.192 408.917,503.125 379.051,473.259 383.317,468.992 425.984,426.325 	"/>
</g>
<path style="fill:#DD2E2B;" d="M62.037,450.304c8.346,8.32,8.363,21.828,0.034,30.174c-8.329,8.346-21.828,8.363-30.174,0.034
	c-8.346-8.329-8.363-21.828-0.034-30.174c3.994-4.002,9.412-6.255,15.07-6.263C52.591,444.066,58.027,446.302,62.037,450.304z"/>
<path style="fill:#62BEFF;" d="M460.8,51.541c9.327,9.463,9.327,24.67,0,34.133l-21.333,21.333l-34.133-34.133l21.333-21.333
	C436.113,42.155,451.354,42.155,460.8,51.541z"/>
<g>
	<path style="fill:#D3D3D3;" d="M157.867,354.475l-25.6,25.6c-7.407-7.433-16.469-12.988-26.453-16.213l30.72-30.72L157.867,354.475
		z"/>
	<path style="fill:#D3D3D3;" d="M179.2,375.808l-30.72,30.72c-3.226-9.984-8.781-19.046-16.213-26.453l25.6-25.6L179.2,375.808z"/>
	<polygon style="fill:#D3D3D3;" points="405.333,72.875 439.467,107.008 452.267,119.808 418.133,153.941 358.4,94.208 
		392.533,60.075 	"/>
</g>
<polygon style="fill:#454545;" points="418.133,153.941 384,162.475 375.467,196.608 315.733,136.875 349.867,128.341 358.4,94.208 
	"/>
<g>
	<polygon style="fill:#B5B5B5;" points="336.384,336.725 323.584,349.525 290.133,316.075 315.733,290.475 349.184,323.925 	"/>
	<polygon style="fill:#B5B5B5;" points="174.933,175.275 187.733,162.475 221.867,196.608 196.267,222.208 162.133,188.075 	"/>
</g>
<rect x="188.927" y="232.926" transform="matrix(-0.7071 0.7071 -0.7071 -0.7071 605.5276 287.4397)" style="fill:#F9B544;" width="108.611" height="72.405"/>
<path style="fill:#D3D3D3;" d="M157.867,354.475l-21.333-21.333l-25.6-25.6l85.333-85.333l25.6-25.6l76.8-76.8l17.067,17.067
	l59.733,59.733l17.067,17.067l-76.8,76.8l-25.6,25.6L204.8,401.408l-25.6-25.6L157.867,354.475z M230.4,333.141l76.8-76.8
	l-51.2-51.2l-76.8,76.8L230.4,333.141z"/>
<circle style="fill:#03AA6F;" cx="499.2" cy="235.008" r="12.8"/>
<g>
	<path style="fill:#62BEFF;" d="M227.9,122.308L108.433,2.842c-3.337-3.328-8.73-3.328-12.066,0L2.5,96.708
		c-3.328,3.337-3.328,8.73,0,12.066l119.467,119.467c3.328,3.328,8.738,3.328,12.066,0l59.733-59.733l3.558-3.558l30.575-30.575
		C231.228,131.046,231.228,125.636,227.9,122.308z M183.467,154.675l-1.766,1.766l-53.7,53.7L20.599,102.741L102.4,20.941
		l107.401,107.401L183.467,154.675z"/>
	
		<rect x="23.222" y="72.876" transform="matrix(-0.7071 0.7071 -0.7071 -0.7071 210.5116 75.6224)" style="fill:#62BEFF;" width="132.743" height="17.067"/>
	
		<rect x="48.828" y="107.011" transform="matrix(-0.7071 0.7071 -0.7071 -0.7071 278.3603 115.7869)" style="fill:#62BEFF;" width="132.743" height="17.067"/>
	
		<rect x="82.959" y="132.61" transform="matrix(-0.7071 0.7071 -0.7071 -0.7071 354.7265 135.3533)" style="fill:#62BEFF;" width="132.743" height="17.067"/>
	
		<rect x="106.655" y="25.037" transform="matrix(-0.7071 0.7071 -0.7071 -0.7071 278.3311 115.7749)" style="fill:#62BEFF;" width="17.067" height="180.99"/>
	<path style="fill:#62BEFF;" d="M408.917,511.659c-2.261,0-4.437-0.896-6.033-2.5L283.418,389.692
		c-3.328-3.328-3.328-8.738,0-12.066l93.867-93.867c3.328-3.328,8.738-3.328,12.066,0l119.467,119.467
		c3.328,3.328,3.328,8.738,0,12.066l-93.867,93.867C413.355,510.763,411.179,511.659,408.917,511.659z M301.517,383.659
		l107.401,107.401l81.801-81.801L383.317,301.858L301.517,383.659z"/>
	
		<rect x="304.144" y="353.802" transform="matrix(-0.7071 0.7071 -0.7071 -0.7071 888.7188 356.5515)" style="fill:#62BEFF;" width="132.743" height="17.067"/>
	
		<rect x="329.741" y="387.911" transform="matrix(-0.7071 0.7071 -0.7071 -0.7071 956.5348 396.6784)" style="fill:#62BEFF;" width="132.743" height="17.067"/>
	
		<rect x="363.838" y="413.536" transform="matrix(-0.7071 0.7071 -0.7071 -0.7071 1032.8608 416.3126)" style="fill:#62BEFF;" width="132.743" height="17.067"/>
	
		<rect x="387.567" y="305.937" transform="matrix(-0.7071 0.7071 -0.7071 -0.7071 956.5057 396.6664)" style="fill:#62BEFF;" width="17.067" height="180.99"/>
</g>
<g>
	
		<rect x="120.936" y="358.737" transform="matrix(-0.7071 0.7071 -0.7071 -0.7071 507.3532 524.3888)" style="fill:#454545;" width="48.273" height="17.067"/>
	
		<rect x="54.435" y="431.302" transform="matrix(-0.7071 0.7071 -0.7071 -0.7071 434.8422 699.5536)" style="fill:#454545;" width="36.207" height="17.067"/>
	<path style="fill:#454545;" d="M46.933,495.275c-16.495,0-29.867-13.372-29.867-29.867c0-16.495,13.372-29.867,29.867-29.867
		S76.8,448.913,76.8,465.408C76.8,481.903,63.428,495.275,46.933,495.275z M46.933,452.608c-7.04,0.026-12.723,5.76-12.698,12.8
		c0.026,7.04,5.76,12.723,12.8,12.698c7.04-0.026,12.723-5.76,12.698-12.8c-0.017-3.362-1.357-6.579-3.729-8.96
		C53.598,453.948,50.33,452.6,46.933,452.608z"/>
	<path style="fill:#454545;" d="M230.4,341.675c-2.261,0-4.437-0.896-6.033-2.5l-51.2-51.2c-3.328-3.328-3.328-8.738,0-12.066
		l76.8-76.8c3.328-3.328,8.738-3.328,12.066,0l51.2,51.2c3.328,3.328,3.328,8.738,0,12.066l-76.8,76.8
		C234.837,340.779,232.661,341.675,230.4,341.675z M191.266,281.941l39.134,39.134l64.734-64.734L256,217.207L191.266,281.941z"/>
</g>
<rect y="0.341" style="fill:#D3D3D3;" width="17.067" height="17.067"/>
<g>
	<rect x="264.533" y="0.341" style="fill:#F9B544;" width="17.067" height="17.067"/>
	<rect x="247.467" y="17.408" style="fill:#F9B544;" width="17.067" height="17.067"/>
	<rect x="281.6" y="17.408" style="fill:#F9B544;" width="17.067" height="17.067"/>
	<rect x="264.533" y="34.475" style="fill:#F9B544;" width="17.067" height="17.067"/>
</g>
<g>
	<rect x="307.2" y="452.608" style="fill:#00448F;" width="17.067" height="17.067"/>
	<rect x="290.133" y="469.675" style="fill:#00448F;" width="17.067" height="17.067"/>
	<rect x="324.267" y="469.675" style="fill:#00448F;" width="17.067" height="17.067"/>
	<rect x="307.2" y="486.741" style="fill:#00448F;" width="17.067" height="17.067"/>
</g>
<path style="fill:#F9B544;" d="M0,316.075v-85.333c23.561,0,42.667,19.106,42.667,42.667S23.561,316.075,0,316.075z"/>
<path style="fill:#B5B5B5;" d="M132.267,380.075c25.924,25.89,25.941,67.9,0.051,93.815c-0.017,0.017-0.034,0.034-0.051,0.051
	L128,478.208l-46.933-46.933l-46.933-46.933l4.267-4.267c25.89-25.924,67.9-25.941,93.815-0.051
	C132.233,380.041,132.25,380.058,132.267,380.075z"/>
<path d="M121.967,228.241c3.328,3.328,8.738,3.328,12.066,0l28.1-28.1l22.067,22.067l-79.3,79.3c-3.328,3.328-3.328,8.738,0,12.066
	l19.567,19.567l-21.214,21.239c-25.421-6.298-52.275,1.152-70.827,19.627l-4.267,4.267c-3.328,3.328-3.328,8.738,0,12.066
	l40.841,40.934l-7.97,7.97c-4.318-2.398-9.165-3.669-14.097-3.703c-16.495,0-29.867,13.372-29.867,29.867
	c0,16.495,13.372,29.867,29.867,29.867S76.8,481.903,76.8,465.408c-0.034-4.932-1.306-9.779-3.703-14.097l7.97-7.97l40.9,40.9
	c3.328,3.328,8.738,3.328,12.066,0l4.267-4.267c18.483-18.551,25.924-45.406,19.627-70.827l21.274-21.274l19.567,19.567
	c3.328,3.328,8.738,3.328,12.066,0l79.3-79.3l21.333,21.333L283.392,377.6c-3.328,3.328-3.328,8.738,0,12.066l119.467,119.467
	c3.328,3.328,8.738,3.328,12.066,0l93.867-93.867c3.328-3.328,3.328-8.738,0-12.066L389.325,283.733
	c-3.328-3.328-8.738-3.328-12.066,0l-28.1,28.075l-21.333-21.333l70.767-70.767c3.328-3.328,3.328-8.738,0-12.066l-13.653-13.653
	l6.118-24.482l29.167-7.287c0.256-0.068,0.469-0.205,0.717-0.282c0.247-0.077,0.503-0.188,0.751-0.299
	c0.913-0.401,1.749-0.956,2.466-1.638l0,0l34.133-34.133c3.328-3.328,3.328-8.73,0-12.066l-6.767-6.767l15.3-15.3
	c12.757-12.757,12.757-33.442,0-46.199s-33.442-12.757-46.199,0l-15.292,15.275l-6.767-6.767c-3.328-3.328-8.738-3.328-12.066,0
	l-34.133,34.133l0,0c-0.683,0.717-1.237,1.553-1.638,2.466c-0.111,0.247-0.205,0.495-0.299,0.751
	c-0.094,0.256-0.213,0.461-0.282,0.717l-7.287,29.167l-24.482,6.118l-13.653-13.653c-3.328-3.328-8.738-3.328-12.066,0
	l-70.793,70.801l-22.067-22.067l28.1-28.1c3.328-3.328,3.328-8.738,0-12.066L108.433,2.842c-3.337-3.328-8.73-3.328-12.066,0
	L2.5,96.708c-3.328,3.337-3.328,8.73,0,12.066L121.967,228.241z M46.933,478.208c-7.066,0-12.8-5.734-12.8-12.8
	c0-7.066,5.734-12.8,12.8-12.8s12.8,5.734,12.8,12.8C59.733,472.474,53.999,478.208,46.933,478.208z M127.266,115.541l34.867-34.867
	l17.801,17.801l-34.867,34.867L127.266,115.541z M133.001,145.408l-34.867,34.867l-17.801-17.801l34.867-34.867L133.001,145.408z
	 M115.2,103.475L97.399,85.675l34.867-34.867l17.801,17.801L115.2,103.475z M103.134,115.541l-34.867,34.867l-17.801-17.801
	l34.867-34.867L103.134,115.541z M128,210.142l-17.801-17.801l34.867-34.867l17.801,17.801l-6.767,6.767L128,210.142z
	 M136.533,345.207l9.267,9.267L131.9,368.375c-3.499-2.782-7.236-5.239-11.17-7.356L136.533,345.207z M128,466.099l-81.758-81.758
	c23.27-21.879,59.878-20.753,81.758,2.517C148.932,409.122,148.932,443.836,128,466.099z M151.364,391.612
	c-2.116-3.934-4.582-7.671-7.364-11.17l13.867-13.901l9.267,9.267L151.364,391.612z M326.895,358.229
	c1.28-0.384,2.449-1.058,3.413-1.988l6.767-6.767l17.067,17.067l-34.85,34.867l-17.801-17.801L326.895,358.229z M408.158,396.433
	l34.867-34.867l17.775,17.801l-34.842,34.842L408.158,396.433z M413.892,426.3l-34.867,34.842l-17.801-17.801l34.867-34.867
	L413.892,426.3z M396.092,384.341l-17.801-17.801l34.867-34.867l17.775,17.826L396.092,384.341z M384,396.433l-34.842,34.842
	l-17.801-17.801l34.867-34.867L384,396.433z M408.892,491.008l-17.801-17.801l34.867-34.867l17.775,17.826L408.892,491.008z
	 M455.825,444.075l-17.801-17.801l34.867-34.867l17.775,17.826L455.825,444.075z M383.292,301.807l17.775,17.826l-34.842,34.842
	l-17.067-17.067l6.767-6.767c0.93-0.964,1.604-2.133,1.988-3.413L383.292,301.807z M337.067,323.9l-13.508,13.508l-21.333-21.333
	l13.508-13.534L337.067,323.9z M432.64,57.574c6.221-5.965,16.102-5.751,22.067,0.478c5.786,6.033,5.786,15.556,0,21.589
	l-15.241,15.3L417.4,72.875L432.64,57.574z M392.533,72.141l47.667,47.667l-22.067,22.067l-47.667-47.667L392.533,72.141z
	 M351.932,136.619c3.063-0.768,5.444-3.149,6.212-6.212l4.881-19.507l38.4,38.4l-19.507,4.881c-3.063,0.768-5.444,3.149-6.212,6.212
	l-4.881,19.507l-38.4-38.4L351.932,136.619z M298.667,131.874l11.034,11.034l59.733,59.733l11.034,11.034L309.7,284.442l-25.6,25.6
	l-79.3,79.3l-81.801-81.801l79.3-79.3l25.6-25.6L298.667,131.874z M209.801,196.608l-13.534,13.534l-22.067-22.067l13.534-13.534
	L209.801,196.608z M181.7,156.442l-6.767,6.767l-17.801-17.801L192,110.541l17.801,17.801L181.7,156.442z M102.4,20.941
	l17.801,17.801L85.333,73.609L67.533,55.808L102.4,20.941z M55.467,67.874l17.801,17.801L38.4,120.542l-17.801-17.801L55.467,67.874
	z"/>
<path d="M173.167,287.974l51.2,51.2c3.328,3.328,8.738,3.328,12.066,0l76.8-76.8c3.328-3.328,3.328-8.738,0-12.066l-51.2-51.2
	c-3.328-3.328-8.738-3.328-12.066,0l-76.8,76.8C169.839,279.236,169.839,284.646,173.167,287.974z M256,217.207l39.134,39.134
	L230.4,321.075l-39.134-39.134L256,217.207z"/>
<rect x="238.945" y="426.983" transform="matrix(-0.9899 0.1416 -0.1416 -0.9899 554.1335 831.6009)" width="17.066" height="17.066"/>
<rect y="0.341" width="17.067" height="17.067"/>
<rect x="264.533" y="0.341" width="17.067" height="17.067"/>
<rect x="247.467" y="17.408" width="17.067" height="17.067"/>
<rect x="281.6" y="17.408" width="17.067" height="17.067"/>
<rect x="264.533" y="34.475" width="17.067" height="17.067"/>
<rect x="307.2" y="452.608" width="17.067" height="17.067"/>
<rect x="290.133" y="469.675" width="17.067" height="17.067"/>
<rect x="324.267" y="469.675" width="17.067" height="17.067"/>
<rect x="307.2" y="486.741" width="17.067" height="17.067"/>
<circle cx="499.2" cy="235.008" r="12.8"/>
<path d="M42.667,273.408C42.641,249.856,23.552,230.767,0,230.741v17.067c14.14,0,25.6,11.46,25.6,25.6s-11.46,25.6-25.6,25.6
	v17.067C23.552,316.049,42.641,296.96,42.667,273.408z"/>
<g>
</g>
<g>
</g>
<g>
</g>
<g>
</g>
<g>
</g>
<g>
</g>
<g>
</g>
<g>
</g>
<g>
</g>
<g>
</g>
<g>
</g>
<g>
</g>
<g>
</g>
<g>
</g>
<g>
</g>
</svg>
