<?xml version="1.0" encoding="iso-8859-1"?>
<!-- Generator: Adobe Illustrator 19.0.0, SVG Export Plug-In . SVG Version: 6.00 Build 0)  -->
<svg version="1.1" id="Capa_1" xmlns="http://www.w3.org/2000/svg" xmlns:xlink="http://www.w3.org/1999/xlink" x="0px" y="0px"
	 viewBox="0 0 512.02 512.02" style="enable-background:new 0 0 512.02 512.02;" xml:space="preserve">
<rect x="40.167" y="119.092" transform="matrix(-0.7071 0.7071 -0.7071 -0.7071 297.5829 271.8712)" style="fill:#FFD33F;" width="104.637" height="156.951"/>
<g>
	
		<rect x="97.323" y="113.326" transform="matrix(-0.7071 0.7071 -0.7071 -0.7071 331.128 285.6835)" style="fill:#383856;" width="18.149" height="196.188"/>
	
		<rect x="67.929" y="216.249" transform="matrix(-0.7071 0.7071 -0.7071 -0.7071 364.6019 299.6234)" style="fill:#383856;" width="104.637" height="18.149"/>
	
		<rect x="40.18" y="188.506" transform="matrix(-0.7071 0.7071 -0.7071 -0.7071 297.614 271.8841)" style="fill:#383856;" width="104.637" height="18.149"/>
	
		<rect x="12.44" y="160.758" transform="matrix(-0.7071 0.7071 -0.7071 -0.7071 230.6388 244.1319)" style="fill:#383856;" width="104.637" height="18.149"/>
</g>
<rect x="262.151" y="341.033" transform="matrix(-0.7071 0.7071 -0.7071 -0.7071 833.469 493.7817)" style="fill:#FFD33F;" width="104.637" height="156.951"/>
<g>
	
		<rect x="291.494" y="307.589" transform="matrix(-0.7071 0.7071 -0.7071 -0.7071 799.9641 480.0095)" style="fill:#383856;" width="18.149" height="196.188"/>
	
		<rect x="234.389" y="382.701" transform="matrix(-0.7071 0.7071 -0.7071 -0.7071 766.4667 466.0695)" style="fill:#383856;" width="104.637" height="18.149"/>
	
		<rect x="262.151" y="410.434" transform="matrix(-0.7071 0.7071 -0.7071 -0.7071 833.469 493.7817)" style="fill:#383856;" width="104.637" height="18.149"/>
	
		<rect x="289.91" y="438.214" transform="matrix(-0.7071 0.7071 -0.7071 -0.7071 900.5009 521.5776)" style="fill:#383856;" width="104.637" height="18.149"/>
</g>
<path style="fill:#FFD33F;" d="M175.738,280.81l42.65-42.65c7.087-7.087,18.575-7.087,25.663-0.009c0,0,0,0,0.009,0.009
	l29.819,29.819c7.087,7.087,7.087,18.575,0.009,25.663c0,0,0,0-0.009,0.009l-85.3,85.3c-7.087,7.087-18.575,7.087-25.663,0.009
	c0,0,0,0-0.009-0.009l-29.819-29.819c-7.087-7.087-7.087-18.575-0.009-25.663c0,0,0,0,0.009-0.009L175.738,280.81"/>
<path style="fill:#91CECE;" d="M247.354,241.408l23.285,23.285c26.198,26.198,66.216,32.686,99.356,16.116l0,0L231.238,142.088l0,0
	C214.686,175.219,221.174,215.219,247.354,241.408z"/>
<g>
	<path style="fill:#EA3836;" d="M512.02,154.293h-18.149c-0.082-75.137-60.98-136.035-136.117-136.117V0.027
		C442.918,0.127,511.929,69.138,512.02,154.293z"/>
	<path style="fill:#EA3836;" d="M468.463,154.293h-18.149c-0.054-51.098-41.461-92.505-92.56-92.56V43.585
		C418.871,43.657,468.399,93.186,468.463,154.293z"/>
	<path style="fill:#EA3836;" d="M424.905,154.293h-18.149c-0.027-27.051-21.951-48.975-49.002-49.002V87.142
		C394.823,87.188,424.86,117.224,424.905,154.293z"/>
	<path style="fill:#EA3836;" d="M357.754,132.515c12.024,0,21.779,9.755,21.779,21.779l0,0h-21.779V132.515z"/>
</g>
<g>
	<circle style="fill:#383856;" cx="58.296" cy="36.325" r="9.074"/>
	<circle style="fill:#383856;" cx="412.183" cy="281.336" r="9.074"/>
	<circle style="fill:#383856;" cx="176.265" cy="117.995" r="9.074"/>
	<circle style="fill:#383856;" cx="76.445" cy="462.825" r="9.074"/>
	<circle style="fill:#383856;" cx="226.174" cy="31.788" r="13.612"/>
	<circle style="fill:#383856;" cx="462.111" cy="385.692" r="13.612"/>
	<circle style="fill:#383856;" cx="44.685" cy="358.469" r="13.612"/>
</g>
<path style="fill:#83B2B7;" d="M270.639,249.675l-23.285-23.24c-14.256-14.283-23.04-33.122-24.81-53.231
	c-2.187,25.3,6.906,50.273,24.855,68.24l23.24,23.249c26.198,26.198,66.216,32.686,99.356,16.116l-10.617-10.617
	C328.307,280.855,293.879,272.897,270.639,249.675z"/>
<g>
	<path style="fill:#FFAC3E;" d="M130.584,345.964c0.717,1.152,1.552,2.214,2.505,3.176l29.819,29.819
		c7.087,7.087,18.575,7.087,25.663,0.009c0,0,0,0,0.009-0.009l54.891-54.892C208.788,342.235,169.549,349.848,130.584,345.964z"/>
	<path style="fill:#FFAC3E;" d="M252.563,370.465l-30.581,30.581l11.951,11.951c12.178-8.966,25.536-16.18,39.71-21.452
		L252.563,370.465z"/>
	
		<rect x="269.762" y="338.005" transform="matrix(-0.7071 0.7071 -0.7071 -0.7071 747.0978 396.715)" style="fill:#FFAC3E;" width="43.249" height="30.163"/>
	<path style="fill:#FFAC3E;" d="M330.531,381.155c3.049,0,6.025,0.29,9.074,0.454l5.445-5.445l-14.918-14.973l-21.588,21.588
		C315.83,381.745,323.171,381.21,330.531,381.155z"/>
</g>
<g>
	<polygon style="fill:#383856;" points="317.309,348.387 317.309,348.387 330.141,361.228 330.141,361.228 	"/>
	<polygon style="fill:#383856;" points="351.583,382.661 345.05,376.128 345.05,376.128 	"/>
</g>
<g>
	<path style="fill:#202033;" d="M286.728,378.968l-21.334-21.334l-27.741-27.741l-12.831,12.831l27.741,27.741l21.08,21.08
		l0.799-0.29c6.18-2.278,12.486-4.174,18.893-5.681c4.991-1.162,10.064-2.069,15.209-2.722l21.588-21.661L317.3,348.36
		L286.728,378.968z"/>
	<path style="fill:#202033;" d="M345.05,376.128l-5.445,5.445c4.047,0.227,8.049,0.544,12.015,1.053L345.05,376.128z"/>
</g>
<path style="fill:#383856;" d="M273.643,391.545l0.254,0.254l0.544-0.544L273.643,391.545z"/>
<g>
	<path style="fill:#FFAC3E;" d="M115.384,243.014l-25.708,25.717l21.325,21.334l30.581-30.581l-17.732-17.732
		C121.056,242.225,118.233,242.651,115.384,243.014z"/>
	<path style="fill:#FFAC3E;" d="M85.52,245.038c-6.915,0-13.748-0.363-20.508-0.971l11.797,11.797l10.889-10.889
		C87.008,245.038,86.273,245.038,85.52,245.038z"/>
	<path style="fill:#FFAC3E;" d="M144.894,237.134l9.519,9.519l19.465-19.465C164.459,231.163,154.776,234.484,144.894,237.134z"/>
</g>
<path style="fill:#202033;" d="M154.413,246.653l-9.519-9.519c-6.888,1.869-13.902,3.412-21.044,4.619l17.732,17.732l27.741,27.741
	l12.831-12.831L154.413,246.653z"/>
<polygon style="fill:#383856;" points="76.836,255.9 76.836,255.9 89.676,268.731 89.676,268.731 "/>
<path style="fill:#202033;" d="M87.761,244.984l-10.889,10.889l12.831,12.831l25.708-25.717
	C106.246,244.221,97.008,244.884,87.761,244.984z"/>
<g>
</g>
<g>
</g>
<g>
</g>
<g>
</g>
<g>
</g>
<g>
</g>
<g>
</g>
<g>
</g>
<g>
</g>
<g>
</g>
<g>
</g>
<g>
</g>
<g>
</g>
<g>
</g>
<g>
</g>
</svg>
